# xmcd
#
# Track frame offsets: 
#        150
#        16362
#        32241
#        43301
#        55090
#        69348
#        79897
#        88515
#        103462
#        126131
#
# Disc length: 1964 seconds
#
# Revision: 0
# Processed by: cddbd v1.5.2PL0 Copyright (c) Steve Scherf et al.
# Submitted via: ExactAudioCopy v1.3
#
DISCID=8607aa0a
DTITLE=Whiskey Bent Valley Boys - Whiskey Bent Valley
DYEAR=2012
DGENRE=Bluegrass
TTITLE0=Baby Mine
TTITLE1=Little Black Train
TTITLE2=Late for the Dance
TTITLE3=Dogs On My Tracks
TTITLE4=Graveyard Blues
TTITLE5=Smoke Behind the Clouds
TTITLE6=Gone to See You Again
TTITLE7=Horses Ain't Hungry
TTITLE8=Lonesome Road
TTITLE9=Squirrels in the Tater Patch
EXTD=
EXTT0=
EXTT1=
EXTT2=
EXTT3=
EXTT4=
EXTT5=
EXTT6=
EXTT7=
EXTT8=
EXTT9=
PLAYORDER=
